{
  "accessors": [
    {
      "bufferView": 0,
      "byteOffset": 0,
      "componentType": 5123,
      "count": 55230,
      "max": [
        55229.0
      ],
      "min": [
        0.0
      ],
      "name": "buffer-0-accessor-indices-buffer-0-mesh-0",
      "type": "SCALAR"
    },
    {
      "bufferView": 2,
      "byteOffset": 0,
      "componentType": 5126,
      "count": 55230,
      "max": [
        12.09173583984375,
        4.2735137939453125,
        11.980708122253418
      ],
      "min": [
        -12.09173583984375,
        0.0,
        -11.980708122253418
      ],
      "name": "buffer-0-accessor-position-buffer-0-mesh-0",
      "type": "VEC3"
    },
    {
      "bufferView": 2,
      "byteOffset": 662760,
      "componentType": 5126,
      "count": 55230,
      "max": [
        1.0,
        1.0,
        1.0
      ],
      "min": [
        -1.0,
        -1.0,
        -1.0
      ],
      "name": "buffer-0-accessor-normal-buffer-0-mesh-0",
      "type": "VEC3"
    },
    {
      "bufferView": 1,
      "byteOffset": 0,
      "componentType": 5126,
      "count": 55230,
      "max": [
        0.9952329993247986,
        0.0
      ],
      "min": [
        0.0,
        -0.9916290044784546
      ],
      "name": "buffer-0-accessor-texcoord-buffer-0-mesh-0",
      "type": "VEC2"
    },
    {
      "bufferView": 3,
      "byteOffset": 0,
      "componentType": 5126,
      "count": 0,
      "max": [
        0.0,
        0.0,
        0.0,
        0.0
      ],
      "min": [
        0.0,
        0.0,
        0.0,
        0.0
      ],
      "name": "buffer-0-accessor-color-buffer-0-mesh-0",
      "type": "VEC4"
    }
  ],
  "asset": {
    "generator": "Obj2GltfConverter",
    "version": "2.0"
  },
  "bufferViews": [
    {
      "buffer": 0,
      "byteLength": 110460,
      "byteOffset": 0,
      "byteStride": 0,
      "name": "buffer-0-bufferview-ushort",
      "target": 34963
    },
    {
      "buffer": 0,
      "byteLength": 441840,
      "byteOffset": 110464,
      "byteStride": 8,
      "name": "buffer-0-bufferview-vec2",
      "target": 34962
    },
    {
      "buffer": 0,
      "byteLength": 1325520,
      "byteOffset": 552312,
      "byteStride": 12,
      "name": "buffer-0-bufferview-vec3",
      "target": 34962
    },
    {
      "buffer": 0,
      "byteLength": 0,
      "byteOffset": 1877840,
      "byteStride": 16,
      "name": "buffer-0-bufferview-vec4",
      "target": 34962
    }
  ],
  "buffers": [
    {
      "byteLength": 1877840,
      "name": "buffer-0",
      "uri": "Garden.bin"
    }
  ],
  "images": [
    {
      "mimeType": "image/png",
      "name": "Garden1:Garden_mat-image",
      "uri": "Garden_BaseColor.png"
    }
  ],
  "materials": [
    {
      "alphaMode": "OPAQUE",
      "doubleSided": true,
      "name": "Garden1:Garden_mat",
      "pbrMetallicRoughness": {
        "baseColorFactor": [
          0.5,
          0.5,
          0.5,
          1.0
        ],
        "baseColorTexture": {
          "index": 0,
          "texCoord": 0
        },
        "metallicFactor": 0.0,
        "roughnessFactor": 0.9699476628648295
      }
    }
  ],
  "meshes": [
    {
      "name": "buffer-0-mesh-0",
      "primitives": [
        {
          "attributes": {
            "POSITION": 1,
            "NORMAL": 2,
            "TEXCOORD_0": 3
          },
          "indices": 0,
          "material": 0,
          "mode": 4
        }
      ]
    }
  ],
  "nodes": [
    {
      "mesh": 0,
      "name": "node-0"
    }
  ],
  "samplers": [
    {
      "name": "Garden1:Garden_mat-sampler",
      "wrapS": 10497,
      "wrapT": 10497
    }
  ],
  "scenes": [
    {
      "name": "scene-0",
      "nodes": [
        0
      ]
    }
  ],
  "textures": [
    {
      "name": "Garden1:Garden_mat-texture",
      "sampler": 0,
      "source": 0
    }
  ]
}